# xmcd
# 
# Track frame offsets:
#     150
#     17512
#     35919
#     55360
#     72687
#     77549
#     95828
#     112528
#     133868
#     153355
#     172022
#     203074
#     222486
#     241712
#     255750
#     271044
#     289095
#     301910
#     323921
# 
# Disc length: 4568
# 
# Revision: 3
# Processed by: cddbd v1.5.2PL0 Copyright (c) Steve Scherf et al.
# Submitted via: fre:ac v1.1beta1pre3
# 
DISCID=0811d613
DTITLE=" Reader's Digest " - «Tranquilité céleste» (2/3)
DYEAR=2004
DGENRE=New Age
TTITLE0=Gomes - Malgalhäes - Da COsta - De Almeida Salgeiro - Ribeiro · O pastor
TTITLE1=Corciolli · Gloriosa (Quietness)
TTITLE2=Chapman · Celestial guardian
TTITLE3=Rhodes · Angel of healing
TTITLE4=Walden · Libelle
TTITLE5=Wallux - Weyer · The garden's delights
TTITLE6=Jenkins · Adiemus
TTITLE7=Corciolli · Spiritus
TTITLE8=Damian · In search of the lost paradise
TTITLE9=Oldfield · De profundis
TTITLE10=Asha · Concert of angels - Lionel's song
TTITLE11=Corciolli · Graduale
TTITLE12=Winston · Thanksgiving
TTITLE13=Lowland - Skawland · Nocturne
TTITLE14=Barbieux · Sanomi
TTITLE15=Van Veen - Leerkes · For the time being
TTITLE16=K. Bush· The man with the child in his eyes
TTITLE17=Noir Désir - B. Cantat · Le vent nous portera
TTITLE18=Oldfield · Mya vin rys
EXTD=YEAR: 2004
EXTT0=
EXTT1=
EXTT2=
EXTT3=
EXTT4=
EXTT5=
EXTT6=
EXTT7=
EXTT8=
EXTT9=
EXTT10=
EXTT11=
EXTT12=
EXTT13=
EXTT14=
EXTT15=
EXTT16=
EXTT17=
EXTT18=
PLAYORDER=
